<svg xmlns="http://www.w3.org/2000/svg" width="21.188" height="22.601" viewBox="0 0 21.188 22.601">
  <path id="np_cart_976387_000000" d="M29.888,38.482a2.119,2.119,0,1,1-2.119-2.119A2.119,2.119,0,0,1,29.888,38.482Zm7.063,0A2.119,2.119,0,1,0,34.832,40.6,2.119,2.119,0,0,0,36.951,38.482ZM20,19.413A1.412,1.412,0,0,1,21.413,18h2.119a1.41,1.41,0,0,1,1.282.822l.921,2H39.776a1.413,1.413,0,0,1,1.236,2.094l-3.531,6.357a1.411,1.411,0,0,1-1.236.731H27.416a1.059,1.059,0,0,0,0,2.119H37.657a1.413,1.413,0,1,1,0,2.825H27.416a3.884,3.884,0,0,1-1.684-7.38l-3.1-6.746H21.413A1.412,1.412,0,0,1,20,19.412Zm7.035,4.238,1.625,3.531h6.754l1.96-3.531Z" transform="translate(-20 -18)" fill="#fff"/>
</svg>