<svg xmlns="http://www.w3.org/2000/svg" width="82.723" height="82.723" viewBox="0 0 82.723 82.723"><defs><style>.a{opacity:0.151;}.b{fill:#fff;}</style></defs><ellipse class="a" cx="41.362" cy="41.362" rx="41.362" ry="41.362" transform="translate(0 0)"/><g transform="translate(22.102 23.116)"><path class="b" d="M35.865,5H11.173A6.164,6.164,0,0,0,5,11.173V35.865a6.164,6.164,0,0,0,6.173,6.173H35.865a6.164,6.164,0,0,0,6.173-6.173V11.173A6.164,6.164,0,0,0,35.865,5Zm2.058,30.865a2.037,2.037,0,0,1-2.058,2.058H11.173a2.037,2.037,0,0,1-2.058-2.058v-14.4h6.461a8.6,8.6,0,0,0-.288,2.058,8.231,8.231,0,0,0,16.461,0,6.913,6.913,0,0,0-.288-2.058h6.461ZM19.4,23.519a4.115,4.115,0,1,1,4.115,4.115A4.127,4.127,0,0,1,19.4,23.519Zm18.519-6.173H28.951a8.2,8.2,0,0,0-10.864,0H9.115V11.173a2.037,2.037,0,0,1,2.058-2.058H35.865a2.037,2.037,0,0,1,2.058,2.058Z" transform="translate(-5 -5)"/><path class="b" d="M70,20h4.115v4.115H70Z" transform="translate(-43.25 -13.827)"/></g></svg>