<svg xmlns="http://www.w3.org/2000/svg" width="82.723" height="82.723" viewBox="0 0 82.723 82.723"><defs><style>.a{opacity:0.151;}.b{fill:#fff;}</style></defs><ellipse class="a" cx="41.362" cy="41.362" rx="41.362" ry="41.362" transform="translate(0 0)"/><path class="b" d="M40.269,0H25.725a4.9,4.9,0,0,0-4.892,4.892V36.811A4.9,4.9,0,0,0,25.725,41.7H40.269a4.9,4.9,0,0,0,4.892-4.892V4.892A4.9,4.9,0,0,0,40.269,0Zm2.286,36.812A2.291,2.291,0,0,1,40.269,39.1H25.725a2.29,2.29,0,0,1-2.286-2.286V4.892a2.29,2.29,0,0,1,2.286-2.286h2.351a1.3,1.3,0,0,0,1.3,1.3h7.236a1.3,1.3,0,0,0,1.3-1.3h2.351a2.29,2.29,0,0,1,2.286,2.286Z" transform="translate(7.449 20.075)"/><path class="b" d="M28.34,30.4a6.459,6.459,0,0,1-2.913-.776A11.078,11.078,0,0,1,20.8,24.99a6.474,6.474,0,0,1-.776-2.914,2.233,2.233,0,0,1,.8-1.394A2.376,2.376,0,0,1,22.1,20a1.185,1.185,0,0,1,.721.4,6.765,6.765,0,0,1,.719.8,4.483,4.483,0,0,1,.9,1.655c0,.388-.44.659-.9.945a5.158,5.158,0,0,0-.5.332c-.144.115-.17.176-.174.19a6.882,6.882,0,0,0,3.233,3.233c.011,0,.072-.027.189-.173a5.122,5.122,0,0,0,.332-.5c.287-.465.557-.9.945-.9a4.472,4.472,0,0,1,1.655.9,6.892,6.892,0,0,1,.8.719,1.184,1.184,0,0,1,.4.721,2.393,2.393,0,0,1-.685,1.282,2.23,2.23,0,0,1-1.4.8Z" transform="translate(14.85 15.795)"/></svg>