<svg xmlns="http://www.w3.org/2000/svg" width="82.723" height="82.723" viewBox="0 0 82.723 82.723"><defs><style>.a{opacity:0.151;}.b{fill:#fff;fill-rule:evenodd;}</style></defs><ellipse class="a" cx="41.362" cy="41.362" rx="41.362" ry="41.362" transform="translate(0 0)"/><path class="b" d="M29.144,10A19.141,19.141,0,0,0,13.38,40a.957.957,0,0,1,.12.823l-1.944,6.506,6.371-2.2a.955.955,0,0,1,.823.1A19.15,19.15,0,1,0,29.144,10Zm-7.837,8.346L24.792,24.1,23.341,25.54a.959.959,0,0,0-.15,1.152c2.214,3.834,4.836,6.816,8.51,8.435a.96.96,0,0,0,1.062-.194L34.3,33.392l5.624,3.515a5.31,5.31,0,0,1-2.363,2.722,5.744,5.744,0,0,1-3.889.359c-3-.623-6.62-2.978-9.572-6s-5.236-6.691-5.818-9.677a5.616,5.616,0,0,1,.389-3.8,4.836,4.836,0,0,1,2.632-2.169Z" transform="translate(11.754 12.217)"/></svg>